<?xml version="1.0" encoding="UTF-8"?>
<svg width="1932px" height="357px" viewBox="0 0 1932 357" version="1.1" xmlns="http://www.w3.org/2000/svg" xmlns:xlink="http://www.w3.org/1999/xlink">
    <!-- Generator: Sketch 43.2 (39069) - http://www.bohemiancoding.com/sketch -->
    <title>gsdn-logo 2</title>
    <desc>Created with Sketch.</desc>
    <defs></defs>
    <g id="Page-1" stroke="none" stroke-width="1" fill="none" fill-rule="evenodd">
        <g id="gsdn-logo" transform="translate(1.000000, 2.000000)" fill-rule="nonzero">
            <g id="Group" transform="translate(273.000000, 263.000000)" stroke="#58595B" stroke-width="1.7597464" fill="#58595B">
                <path d="M81.489502,47.2637329 C81.7059327,57.5501404 80.1902161,66.5370178 72.9355164,74.4413452 C65.1394043,82.8870849 53.4454956,87.6512451 41.9680787,87.6512451 C19.3381349,87.6512451 0.0648499,68.5944214 0.0648499,46.0726929 C0.0648499,22.6846314 19.229889,3.844513 42.6177063,3.844513 C57.4517822,3.844513 69.4706421,11.2071839 78.0245972,22.9013367 L73.8016053,26.2579956 C66.5471803,15.4301758 55.5028992,8.7168884 42.2929993,8.7168884 C22.3698426,8.7168884 5.262146,26.1495056 5.262146,45.7477417 C5.262146,65.8873901 21.9369202,82.778595 42.2929993,82.778595 C51.0634461,82.778595 59.6174012,79.2055054 66.330719,73.7917176 C73.3686829,67.8365479 75.9672241,61.0150147 76.2921753,52.1361085 L47.0571594,52.1361085 L47.0571594,47.263733 L81.489502,47.263733 L81.489502,47.2637329 Z" id="Shape"></path>
                <path d="M173.956299,45.7477417 C173.956299,68.7026367 154.574768,87.6512451 131.619873,87.6512451 C108.664978,87.6512451 89.2834777,68.7026367 89.2834777,45.7477417 C89.2834777,22.7931213 108.556763,3.8445129 131.619873,3.8445129 C154.574768,3.8445129 173.956299,22.7931213 173.956299,45.7477417 Z M94.4808044,45.7477417 C94.4808044,65.8873901 111.263794,82.778595 131.619873,82.778595 C151.867737,82.778595 168.758972,65.7791443 168.758972,45.7477417 C168.758972,25.6080933 151.867737,8.7168884 131.619873,8.7168884 C111.263794,8.7168884 94.4808044,25.6080933 94.4808044,45.7477417 Z" id="Shape"></path>
                <polygon id="Shape" points="191.819946 81.6960754 212.609253 81.6960754 212.609253 86.5684204 186.62265 86.5684204 186.62265 4.9273376 191.819946 4.9273376 191.819946 81.6960754"></polygon>
                <path d="M222.028503,4.9273376 L236.754639,4.9273376 C248.664978,4.9273376 258.085022,6.8762207 267.072205,15.2134704 C275.625916,23.2260436 280.065369,34.1620788 280.065369,45.8559875 C280.065369,57.1169738 275.734131,67.8365478 267.505066,75.7406311 C258.517944,84.4028015 248.881409,86.5684204 236.754639,86.5684204 L222.028503,86.5684204 L222.028503,4.9273376 L222.028503,4.9273376 Z M236.646423,81.6960754 C247.365723,81.6960754 256.244079,79.5304565 264.040222,71.8428344 C270.969971,64.9130859 274.868286,55.6009826 274.868286,45.8559875 C274.868286,35.4613342 270.75354,25.7165832 263.065613,18.6783447 C255.270081,11.6403503 246.824036,9.7996826 236.646423,9.7996826 L227.22583,9.7996826 L227.22583,81.6960754 L236.646423,81.6960754 Z" id="Shape"></path>
                <polygon id="Shape" points="297.821045 9.7996826 297.821045 39.4676208 330.737671 39.4676208 330.737671 44.3402404 297.821045 44.3402404 297.821045 81.6960754 331.604004 81.6960754 331.604004 86.5684204 292.624023 86.5684204 292.624023 4.9273376 331.604004 4.9273376 331.604004 9.7996826"></polygon>
                <polygon id="Shape" points="421.255859 89.2754517 352.71637 16.4047547 352.71637 86.5684205 347.518799 86.5684205 347.518799 3.844513 416.058228 76.1737977 416.058228 4.9273377 421.255859 4.9273377"></polygon>
                <path d="M510.148498,18.3536682 C506.467163,12.5067139 501.27008,8.7168884 493.582214,8.7168884 C484.811523,8.7168884 478.20697,15.7548828 478.20697,24.3088379 C478.20697,32.8628235 486.327759,36.4359131 492.932312,39.5761108 L508.524536,47.6968994 C514.696167,51.594696 517.836365,56.5755615 517.836365,63.9385071 C517.836365,77.473053 505.492554,87.6512451 492.282959,87.6512451 C480.913696,87.6512451 472.03479,80.6132507 468.245239,70.1101379 L472.792908,68.053009 C476.257812,76.7152099 482.645874,82.7785949 492.49939,82.7785949 C503.218689,82.7785949 512.638794,74.3331298 512.638794,63.50531 C512.638794,54.3017272 503.218689,50.4036559 496.180725,46.9387817 L481.454834,39.1429443 C476.041382,35.7862854 473.009399,31.0221557 473.009399,24.5255737 C473.009399,12.3984985 481.671875,3.8445129 493.90686,3.8445129 C502.135925,3.8445129 509.932007,8.2837219 513.830322,15.3219604 L510.148498,18.3536682 Z" id="Shape"></path>
                <polygon id="Shape" points="549.451599 86.5684204 544.254517 86.5684204 544.254517 9.7996826 523.140564 9.7996826 523.140564 4.9273376 570.56604 4.9273376 570.56604 9.7996826 549.451599 9.7996826 549.451599 86.5684204"></polygon>
                <path d="M579.354248,59.7154846 L568.417969,86.5684204 L563.112121,86.5684204 L597.328003,2.2203064 L631.435669,86.5684204 L626.129883,86.5684204 L615.194092,59.7154846 L579.354248,59.7154846 Z M597.328003,15.4301758 L581.302918,54.8431091 L613.244934,54.8431091 L597.328003,15.4301758 Z" id="Shape"></path>
                <polygon id="Shape" points="650.291687 86.5684204 645.094666 86.5684204 645.094666 9.7996826 623.980713 9.7996826 623.980713 4.9273376 671.406189 4.9273376 671.406189 9.7996826 650.291687 9.7996826"></polygon>
                <polygon id="Shape" points="686.022766 9.7996826 686.022766 39.4676208 718.939331 39.4676208 718.939331 44.3402404 686.022766 44.3402404 686.022766 81.6960754 719.805176 81.6960754 719.805176 86.5684204 680.825745 86.5684204 680.825745 4.9273376 719.805176 4.9273376 719.805176 9.7996826"></polygon>
                <path d="M764,4 L778.725876,4 C790.636231,4 800.056549,5.9489136 809.043427,14.2861633 C817.597397,22.298706 822.036865,33.2347412 822.036865,44.9286499 C822.036865,56.1896362 817.705627,66.9092407 809.476608,74.8132935 C800.489456,83.4755249 790.852951,85.6411133 778.725876,85.6411133 L764,85.6411133 L764,4 Z M778.617645,80.7687377 C789.33696,80.7687377 798.215622,78.6031493 806.011734,70.9155273 C812.941482,63.9857482 816.839539,54.673645 816.839539,44.9286499 C816.839539,34.5340271 812.725036,24.7892761 805.037155,17.7510376 C797.241302,10.7130432 788.795563,8.8723755 778.617645,8.8723755 L769.197327,8.8723755 L769.197327,80.7687378 L778.617645,80.7687378 L778.617645,80.7687377 Z" id="Shape"></path>
                <polygon id="Shape" points="840.197311 85.6411133 835 85.6411133 835 4 840.197311 4"></polygon>
                <path d="M934.424652,46.4191894 C934.641113,56.7056274 933.125397,65.6924743 925.870666,73.5968322 C918.074585,82.0425719 906.380676,86.8067321 894.903229,86.8067321 C872.273285,86.8067321 853,67.7499084 853,45.2281799 C853,21.8401184 872.16507,3 895.552856,3 C910.386963,3 922.405792,10.3626709 930.959778,22.0568237 L926.736755,25.4134826 C919.48233,14.5856628 908.438049,7.8723754 895.22818,7.8723754 C875.304993,7.8723754 858.197311,25.3049926 858.197311,44.9032287 C858.197311,65.0428466 874.87207,81.9340515 895.22818,81.9340515 C903.998596,81.9340515 912.552582,78.3609924 919.265869,72.9471741 C926.303864,66.9920349 928.902374,60.1705017 929.227325,51.291565 L899.99231,51.291565 L899.99231,46.4191895 L934.424652,46.4191895 L934.424652,46.4191894 Z" id="Shape"></path>
                <polygon id="Shape" points="952.197327 85.6411133 947 85.6411133 947 4 952.197327 4"></polygon>
                <polygon id="Shape" points="987.311524 85.6411133 982.114197 85.6411133 982.114197 8.8723755 961 8.8723755 961 4 1008.42548 4 1008.42548 8.8723755 987.311524 8.8723755"></polygon>
                <path d="M1017.24158,59.4951782 L1006.30554,86.348114 L1001,86.348114 L1035.21561,2 L1069.323,86.348114 L1064.01746,86.348114 L1053.08142,59.4951782 L1017.24158,59.4951782 L1017.24158,59.4951782 Z M1035.21561,15.2098694 L1019.19049,54.6228027 L1051.13251,54.6228027 L1035.21561,15.2098694 Z" id="Shape"></path>
                <polygon id="Shape" points="1084.19733 80.7687378 1104.98657 80.7687378 1104.98657 85.6411133 1079 85.6411133 1079 4 1084.19733 4 1084.19733 80.7687378"></polygon>
                <polygon id="Shape" points="1221.737 88.4309387 1153.19757 15.5602417 1153.19757 85.7239075 1148 85.7239075 1148 3 1216.53998 75.3292542 1216.53998 4.0827942 1221.737 4.0827942"></polygon>
                <polygon id="Shape" points="1244.19702 8.8723756 1244.19702 38.5403138 1277.11365 38.5403138 1277.11365 43.4129334 1244.19702 43.4129334 1244.19702 80.7687378 1277.97998 80.7687378 1277.97998 85.6411133 1239 85.6411133 1239 4 1277.97998 4 1277.97998 8.8723755 1244.19702 8.8723755"></polygon>
                <polygon id="Shape" points="1312.31097 85.6411133 1307.11395 85.6411133 1307.11395 8.8723755 1286 8.8723755 1286 4 1333.42548 4 1333.42548 8.8723755 1312.31097 8.8723755 1312.31097 85.6411133"></polygon>
                <polygon id="Shape" points="1363.15192 74.2784729 1393.68646 0 1424.22046 74.2784729 1446.85071 4.1147766 1452.04773 4.1147766 1424.54572 88.4629211 1393.36182 12.9934387 1362.28613 88.4629211 1335 4.1147766 1340.19757 4.1147766"></polygon>
                <path d="M1536.67334,44.9032288 C1536.67334,67.8581238 1517.29156,86.8067322 1494.33667,86.8067322 C1471.38177,86.8067322 1452,67.8581238 1452,44.9032288 C1452,21.9486084 1471.27356,3 1494.33667,3 C1517.29156,3.0000001 1536.67334,21.9486085 1536.67334,44.9032288 Z M1457.19757,44.9032288 C1457.19757,65.0428467 1473.98029,81.9340516 1494.33667,81.9340516 C1514.58478,81.9340516 1531.47577,64.9346314 1531.47577,44.9032288 C1531.47577,24.7635804 1514.58478,7.8723755 1494.33667,7.8723755 C1473.98029,7.8723756 1457.19757,24.7635804 1457.19757,44.9032288 Z" id="Shape"></path>
                <path d="M1590.38751,85.6411133 L1584.43176,85.6411133 L1557.79553,46.9860535 L1555.19702,46.9860535 L1555.19702,85.6411133 L1550,85.6411133 L1550,4 L1560.17761,4 C1566.78271,4 1573.27954,4.1082458 1578.80182,8.114502 C1584.64874,12.2290345 1587.03082,18.7256165 1587.03082,25.655365 C1587.03082,39.8398438 1577.17731,47.2024841 1563.64252,46.9860535 L1590.38751,85.6411133 Z M1561.80212,42.113678 C1566.89093,42.113678 1571.98029,41.8969422 1576.09454,38.3238526 C1579.99286,35.1839295 1581.83325,30.3112794 1581.83325,25.4389039 C1581.83325,19.3752442 1579.01825,13.3118287 1573.17133,10.7130433 C1568.84009,8.6559144 1563.31781,8.8723756 1558.55365,8.8723756 L1555.19702,8.8723756 L1555.19702,42.1136781 L1561.80212,42.1136781 L1561.80212,42.113678 Z" id="Shape"></path>
                <polygon id="Shape" points="1645.96069 4 1652.89038 4 1612.93579 43.304718 1655.38074 85.6411133 1648.5592 85.6411133 1609.36267 46.6613465 1607.19708 48.8267213 1607.19708 85.6411134 1602 85.6411134 1602 4.0000001 1607.19708 4.0000001 1607.19708 42.1136781"></polygon>
            </g>
            <path d="M230.792969,3.2296028 C166.716507,18.1320419 126.709091,82.3883552 141.611526,146.464817 C146.119324,165.847141 155.165131,183.005909 167.333603,197.130116 L180.016708,184.471653 C170.110153,172.65929 162.739014,158.432621 159.014297,142.417408 C146.343079,87.9345741 180.357544,33.303608 234.840363,20.6323891 C289.323181,7.9611702 343.954163,41.9756279 356.625397,96.4584542 C369.2966,150.941288 335.282135,205.572239 280.799316,218.243473 C248.553803,225.742893 216.260254,216.883671 192.64061,197.112034 L179.968445,209.759739 C207.849289,233.728001 246.373108,244.594181 284.846741,235.646244 C348.923187,220.743809 388.930603,156.487492 374.028168,92.4110451 C359.125732,28.3345985 294.869415,-11.6728325 230.792969,3.2296028 Z" id="Shape" stroke="#FFC20E" stroke-width="3.5194914" fill="#FFC50B"></path>
            <path d="M41.4254608,198.08429 C41.3665924,198.098343 41.3117447,198.120056 41.2527923,198.133774 C31.2314605,200.464462 21.1808357,194.209137 18.8501472,184.187805 C16.5194587,174.166473 22.7776107,164.115189 32.7989425,161.7845 C42.8202743,159.453812 52.8687286,165.712631 55.199417,175.733963 C56.0236052,179.277756 55.755699,182.818024 54.6456374,186.026047 L68.0550765,199.192474 C72.9694823,191.263413 74.8773803,181.469238 72.6021956,171.686554 C68.0396346,152.068756 48.369316,139.819168 28.7515334,144.381729 C9.1337508,148.94429 -3.1151963,168.617432 1.4473647,188.235214 C6.0099257,207.852997 25.6824187,220.099121 45.3002013,215.53656 C48.8709029,214.706116 52.189041,213.363373 55.2144393,211.623718 L41.4254608,198.08429 Z" id="Shape" stroke="#F15A29" stroke-width="1.7597457" fill="#F15A29"></path>
            <g id="Group" transform="translate(52.000000, 195.000000)" stroke="#F7941D" stroke-width="1.7597457" fill="#F7941D">
                <path d="M39.0162048,26.7379761 C43.6279907,23.5742798 48.8635101,21.1661072 54.6309814,19.8247376 C67.6159668,16.8048096 80.5919799,19.6411133 90.8719482,26.5447388 L103.708725,13.732605 C89.0546569,2.6925965 69.8090514,-2.0493622 50.5835723,2.4219666 C41.3815307,4.5621033 33.1441421,8.6410523 26.1058044,14.0612183 L39.0162048,26.7379761 Z" id="Shape"></path>
                <path d="M116.330109,26.375824 L103.50589,39.1753235 C106.53862,43.6942139 108.858597,48.7927857 110.162689,54.4000244 C115.940002,79.2409057 100.430466,104.15094 75.5867461,109.928894 C50.7458648,115.706207 25.8358458,100.196686 20.0585326,75.3558044 C17.0765837,62.5342102 19.7980422,49.7174072 26.5124282,39.4999084 L13.5940398,26.8153076 C2.8338546,41.4024353 -1.7625428,60.4057312 2.655754,79.4031982 C10.6649398,113.840546 45.196823,135.340851 79.6341552,127.331665 C114.071487,119.322479 135.574646,84.7899475 127.56546,50.3526001 C125.477112,41.373291 121.553329,33.3022766 116.330109,26.375824 Z" id="Shape"></path>
            </g>
        </g>
    </g>
</svg>