<?xml version="1.0" encoding="utf-8"?>
<!-- Generator: Adobe Illustrator 23.0.3, SVG Export Plug-In . SVG Version: 6.00 Build 0)  -->
<svg version="1.1" id="Layer_1" xmlns="http://www.w3.org/2000/svg" xmlns:xlink="http://www.w3.org/1999/xlink" x="0px" y="0px"
	 viewBox="0 0 1100 600" enable-background="new 0 0 1100 600" xml:space="preserve">
<g>
	<g>
		<path fill="#58595B" stroke="#58595B" stroke-width="1.7597464" stroke-miterlimit="10" d="M396.489502,363.2637329
			c0.2164307,10.2864075-1.2992859,19.2732849-8.5539856,27.1776123
			c-7.7961121,8.4457397-19.4900208,13.2098999-30.9674377,13.2098999c-22.6299438,0-41.9032288-19.0568237-41.9032288-41.5785522
			c0-23.3880615,19.1650391-42.2281799,42.5528564-42.2281799c14.8340759,0,26.8529358,7.3626709,35.4068909,19.0568237
			l-4.2229919,3.3566589c-7.254425-10.8278198-18.2987061-17.5411072-31.508606-17.5411072
			c-19.9231567,0-37.0308533,17.4326172-37.0308533,37.0308533c0,20.1396484,16.6747742,37.0308533,37.0308533,37.0308533
			c8.7704468,0,17.3244019-3.5730896,24.0377197-8.9868774c7.0379639-5.9551697,9.6365051-12.7767029,9.9614563-21.6556091
			h-29.2350159v-4.8723755H396.489502z"/>
		<path fill="#58595B" stroke="#58595B" stroke-width="1.7597464" stroke-miterlimit="10" d="M488.9562988,361.7477417
			c0,22.954895-19.3815308,41.9035034-42.3364258,41.9035034s-42.3363953-18.9486084-42.3363953-41.9035034
			c0-22.9546204,19.2732849-41.9032288,42.3363953-41.9032288
			C469.5747681,319.8445129,488.9562988,338.7931213,488.9562988,361.7477417z M409.4808044,361.7477417
			c0,20.1396484,16.7829895,37.0308533,37.1390686,37.0308533c20.2478638,0,37.1390991-16.9994507,37.1390991-37.0308533
			c0-20.1396484-16.8912354-37.0308533-37.1390991-37.0308533
			C426.2637939,324.7168884,409.4808044,341.6080933,409.4808044,361.7477417z"/>
		<path fill="#58595B" stroke="#58595B" stroke-width="1.7597464" stroke-miterlimit="10" d="M506.8199463,397.6960754h20.7893066
			v4.872345h-25.9866028v-81.6410828h5.1972961V397.6960754z"/>
		<path fill="#58595B" stroke="#58595B" stroke-width="1.7597464" stroke-miterlimit="10" d="M537.0285034,320.9273376h14.7261353
			c11.9103394,0,21.3303833,1.9488831,30.3175659,10.2861328c8.5537109,8.0125732,12.9931641,18.9486084,12.9931641,30.6425171
			c0,11.2609863-4.3312378,21.9805603-12.5603027,29.8846436c-8.9871216,8.6621704-18.6236572,10.8277893-30.7504272,10.8277893
			h-14.7261353V320.9273376z M551.6464233,397.6960754c10.7192993,0,19.5976562-2.1656189,27.3937988-9.853241
			c6.9297485-6.9297485,10.828064-16.2418518,10.828064-25.9868469c0-10.3946533-4.1147461-20.1394043-11.8026733-27.1776428
			c-7.7955322-7.0379944-16.2415771-8.8786621-26.4191895-8.8786621h-9.4205933v71.8963928H551.6464233z"/>
		<path fill="#58595B" stroke="#58595B" stroke-width="1.7597464" stroke-miterlimit="10" d="M612.8210449,325.7996826v29.6679382
			h32.916626v4.8726196h-32.916626v37.355835h33.782959v4.872345h-38.9799805v-81.6410828h38.9799805v4.872345H612.8210449z"/>
		<path fill="#58595B" stroke="#58595B" stroke-width="1.7597464" stroke-miterlimit="10" d="M736.2558594,405.2754517
			l-68.5394897-72.870697v70.1636658h-5.1975708v-82.7239075l68.5394287,72.3292847v-71.24646h5.1976318V405.2754517z"/>
		<path fill="#58595B" stroke="#58595B" stroke-width="1.7597464" stroke-miterlimit="10" d="M825.1484985,334.3536682
			c-3.6813354-5.8469543-8.878418-9.6367798-16.5662842-9.6367798c-8.7706909,0-15.3752441,7.0379944-15.3752441,15.5919495
			c0,8.5539856,8.1207886,12.1270752,14.7253418,15.2672729l15.5922241,8.1207886
			c6.1716309,3.8977966,9.3118286,8.8786621,9.3118286,16.2416077c0,13.5345459-12.343811,23.712738-25.5534058,23.712738
			c-11.3692627,0-20.2481689-7.0379944-24.0377197-17.5411072l4.5476685-2.0571289
			c3.4649048,8.6622009,9.8529663,14.7255859,19.7064819,14.7255859c10.7192993,0,20.1394043-8.4454651,20.1394043-19.2732849
			c0-9.2035828-9.420105-13.1016541-16.4580688-16.5665283l-14.7258911-7.7958374
			c-5.4134521-3.3566589-8.4454346-8.1207886-8.4454346-14.6173706c0-12.1270752,8.6624756-20.6810608,20.8974609-20.6810608
			c8.2290649,0,16.0251465,4.439209,19.9234619,11.4774475L825.1484985,334.3536682z"/>
		<path fill="#58595B" stroke="#58595B" stroke-width="1.7597464" stroke-miterlimit="10" d="M864.4515991,402.5684204h-5.1970825
			v-76.7687378H838.140564v-4.872345H885.56604v4.872345h-21.1144409V402.5684204z"/>
		<path fill="#58595B" stroke="#58595B" stroke-width="1.7597464" stroke-miterlimit="10" d="M894.354248,375.7154846
			l-10.9362793,26.8529358h-5.3058472l34.2158813-84.348114l34.107666,84.348114h-5.3057861l-10.935791-26.8529358H894.354248z
			 M912.3280029,331.4301758l-16.0250854,39.4129333h31.9420166L912.3280029,331.4301758z"/>
		<path fill="#58595B" stroke="#58595B" stroke-width="1.7597464" stroke-miterlimit="10" d="M965.291687,402.5684204h-5.1970215
			v-76.7687378h-21.1139526v-4.872345h47.4254761v4.872345h-21.114502V402.5684204z"/>
		<path fill="#58595B" stroke="#58595B" stroke-width="1.7597464" stroke-miterlimit="10" d="M1001.0227661,325.7996826v29.6679382
			h32.9165649v4.8726196h-32.9165649v37.355835h33.7824097v4.872345h-38.9794312v-81.6410828h38.9794312v4.872345H1001.0227661z"/>
		<path fill="#58595B" stroke="#58595B" stroke-width="1.7597464" stroke-miterlimit="10" d="M150.9388123,450.8589478h14.7258759
			c11.9103546,0,21.3306732,1.9489136,30.3175507,10.2861633c8.5539703,8.0125427,12.9934387,18.9485779,12.9934387,30.6424866
			c0,11.2609863-4.3312378,21.9805908-12.560257,29.8846436c-8.9871521,8.6622314-18.6236572,10.8278198-30.7507324,10.8278198
			h-14.7258759V450.8589478z M165.5564575,527.6276855c10.7193146,0,19.5979767-2.1655884,27.3940887-9.8532104
			c6.9297485-6.9297791,10.8278046-16.2418823,10.8278046-25.9868774c0-10.3946228-4.114502-20.1393738-11.8023834-27.1776123
			c-7.7958527-7.0379944-16.2415924-8.8786621-26.4195099-8.8786621h-9.4203186v71.8963623H165.5564575z"/>
		<path fill="#58595B" stroke="#58595B" stroke-width="1.7597464" stroke-miterlimit="10" d="M226.7313843,532.500061h-5.1973114
			v-81.6411133h5.1973114V532.500061z"/>
		<path fill="#58595B" stroke="#58595B" stroke-width="1.7597464" stroke-miterlimit="10" d="M320.8234558,493.195343
			c0.2164612,10.286438-1.2992554,19.2732849-8.5539856,27.1776428
			c-7.7960815,8.4457397-19.4899902,13.2098999-30.9674377,13.2098999c-22.6299438,0-41.9032288-19.0568237-41.9032288-41.5785522
			c0-23.3880615,19.1650696-42.2281799,42.5528564-42.2281799c14.8341064,0,26.8529358,7.3626709,35.4069214,19.0568237
			l-4.2230225,3.3566589c-7.254425-10.8278198-18.2987061-17.5411072-31.5085754-17.5411072
			c-19.9231873,0-37.0308685,17.4326172-37.0308685,37.0308533c0,20.1396179,16.6747589,37.0308228,37.0308685,37.0308228
			c8.7704163,0,17.3244019-3.5730591,24.0376892-8.9868774c7.0379944-5.9551392,9.6365051-12.7766724,9.9614563-21.6556091
			h-29.2350159v-4.8723755H320.8234558z"/>
		<path fill="#58595B" stroke="#58595B" stroke-width="1.7597464" stroke-miterlimit="10" d="M338.6871338,532.500061h-5.1973267
			v-81.6411133h5.1973267V532.500061z"/>
		<path fill="#58595B" stroke="#58595B" stroke-width="1.7597464" stroke-miterlimit="10" d="M374.4176636,532.500061h-5.1973267
			v-76.7687378h-21.1141968v-4.8723755h47.4254761v4.8723755h-21.1139526V532.500061z"/>
		<path fill="#58595B" stroke="#58595B" stroke-width="1.7597464" stroke-miterlimit="10" d="M404.3192749,505.6471252
			l-10.9360352,26.8529358h-5.305542l34.2156067-84.348114l34.1073914,84.348114h-5.305542l-10.9360352-26.8529358H404.3192749z
			 M422.2933044,461.3618164l-16.025116,39.4129333h31.9420166L422.2933044,461.3618164z"/>
		<path fill="#58595B" stroke="#58595B" stroke-width="1.7597464" stroke-miterlimit="10" d="M470.9082642,527.6276855h20.7892456
			v4.8723755h-25.9865723v-81.6411133h5.1973267V527.6276855z"/>
		<path fill="#58595B" stroke="#58595B" stroke-width="1.7597464" stroke-miterlimit="10" d="M608.4192505,535.2070923
			l-68.5394287-72.870697v70.1636658h-5.1975708v-82.7239075l68.539978,72.3292542v-71.24646h5.1970215V535.2070923z"/>
		<path fill="#58595B" stroke="#58595B" stroke-width="1.7597464" stroke-miterlimit="10" d="M631.1550293,455.7313232v29.6679382
			h32.916626v4.8726196h-32.916626v37.3558044h33.782959v4.8723755h-38.9799805v-81.6411133h38.9799805v4.8723755H631.1550293z"/>
		<path fill="#58595B" stroke="#58595B" stroke-width="1.7597464" stroke-miterlimit="10" d="M699.0435181,532.500061h-5.1970215
			v-76.7687378h-21.1139526v-4.8723755H720.15802v4.8723755h-21.114502V532.500061z"/>
		<path fill="#58595B" stroke="#58595B" stroke-width="1.7597464" stroke-miterlimit="10" d="M750.2580566,521.022644
			l30.5345459-74.2784729l30.5339966,74.2784729l22.630249-70.1636963h5.1970215l-27.5020142,84.3481445l-31.1838989-75.4694824
			l-31.0756836,75.4694824l-27.2861328-84.3481445h5.1975708L750.2580566,521.022644z"/>
		<path fill="#58595B" stroke="#58595B" stroke-width="1.7597464" stroke-miterlimit="10" d="M923.6086426,491.6793823
			c0,22.954895-19.3817749,41.9035034-42.3366699,41.9035034s-42.3366699-18.9486084-42.3366699-41.9035034
			c0-22.9546204,19.2735596-41.9032288,42.3366699-41.9032288
			C904.2268677,449.7761536,923.6086426,468.724762,923.6086426,491.6793823z M844.1328735,491.6793823
			c0,20.1396179,16.7827148,37.0308228,37.1390991,37.0308228c20.2481079,0,37.1390991-16.9994202,37.1390991-37.0308228
			c0-20.1396484-16.8909912-37.0308533-37.1390991-37.0308533
			C860.9155884,454.6485291,844.1328735,471.5397339,844.1328735,491.6793823z"/>
		<path fill="#58595B" stroke="#58595B" stroke-width="1.7597464" stroke-miterlimit="10" d="M976.6625366,532.500061h-5.9557495
			l-26.6362305-38.6550598h-2.5985107v38.6550598h-5.1970215v-81.6411133h10.1776123
			c6.6051025,0,13.1019287,0.1082458,18.6242065,4.114502c5.8469238,4.1145325,8.2290039,10.6111145,8.2290039,17.540863
			c0,14.1844788-9.8535156,21.5471191-23.3883057,21.3306885L976.6625366,532.500061z M948.0771484,488.9726257
			c5.0888062,0,10.1781616-0.2167358,14.2924194-3.7898254c3.8983154-3.1399231,5.7387085-8.0125732,5.7387085-12.8849487
			c0-6.0636597-2.8150024-12.1270752-8.6619263-14.7258606c-4.3312378-2.0571289-9.8535156-1.8406677-14.6176758-1.8406677
			h-3.3566284v33.2413025H948.0771484z"/>
		<path fill="#58595B" stroke="#58595B" stroke-width="1.7597464" stroke-miterlimit="10" d="M1033.0736084,450.8589478h6.9296875
			l-39.9545898,39.304718l42.4449463,42.3363953h-6.8215332l-39.1965332-38.9797668l-2.1655884,2.1653748v36.8143921h-5.1970825
			v-81.6411133h5.1970825v38.113678L1033.0736084,450.8589478z"/>
	</g>
	<path fill="#FFC50B" stroke="#FFC20E" stroke-width="3.5194914" stroke-miterlimit="10" d="M272.7929688,56.2296028
		c-64.0764618,14.9024391-104.0838776,79.1587524-89.1814423,143.2352142
		c4.5077972,19.3823242,13.5536041,36.5410919,25.7220764,50.6652985l12.6831055-12.6584625
		c-9.9065552-11.8123627-17.2776947-26.039032-21.0024109-42.054245
		c-12.6712189-54.4828339,21.3432465-109.1138,75.8260651-121.7850189s109.1138,21.3432388,121.7850342,75.8260651
		c12.6712036,54.4828339-21.3432617,109.1137848-75.8260803,121.7850189
		c-32.2455139,7.4994202-64.5390625-1.3598022-88.1587067-21.1314392l-12.6721649,12.6477051
		c27.8808441,23.9682617,66.4046631,34.8344421,104.8782959,25.8865051
		c64.0764465-14.9024353,104.0838623-79.1587524,89.181427-143.235199S336.8694153,41.3271675,272.7929688,56.2296028z"/>
	<path fill="#F15A29" stroke="#F15A29" stroke-width="1.7597457" stroke-miterlimit="10" d="M83.4254608,251.0842896
		c-0.0588684,0.0140533-0.1137161,0.0357666-0.1726685,0.0494843c-10.0213318,2.3306885-20.0719566-3.9246368-22.4026451-13.9459686
		s3.9274635-20.0726166,13.9487953-22.4033051s20.0697861,3.9281311,22.4004745,13.9494629
		c0.8241882,3.5437927,0.556282,7.0840607-0.5537796,10.2920837l13.4094391,13.1664276
		c4.9144058-7.9290619,6.8223038-17.7232361,4.5471191-27.5059204
		c-4.562561-19.6177979-24.2328796-31.8673859-43.8506622-27.3048248s-31.8667297,24.2357025-27.3041687,43.8534851
		s24.235054,31.8639069,43.8528366,27.3013458c3.5707016-0.8304443,6.8888397-2.1731873,9.914238-3.9128418L83.4254608,251.0842896z
		"/>
	<g>
		<path fill="#F7941D" stroke="#F7941D" stroke-width="1.7597457" stroke-miterlimit="10" d="M133.0162048,274.7379761
			c4.6117859-3.1636963,9.8473053-5.5718689,15.6147766-6.9132385c12.9849854-3.019928,25.9609985-0.1836243,36.2409668,6.7200012
			l12.8367767-12.8121338c-14.654068-11.0400085-33.8996735-15.7819672-53.1251526-11.3106384
			c-9.2020416,2.1401367-17.4394302,6.2190857-24.4777679,11.6392517L133.0162048,274.7379761z"/>
		<path fill="#F7941D" stroke="#F7941D" stroke-width="1.7597457" stroke-miterlimit="10" d="M210.3301086,274.375824
			l-12.8242188,12.7994995c3.0327301,4.5188904,5.3527069,9.6174622,6.6567993,15.2247009
			c5.7773132,24.8408813-9.7322235,49.7509155-34.575943,55.5288696
			c-24.8408813,5.7773132-49.7509003-9.7322083-55.5282135-34.5730896
			c-2.9819489-12.8215942-0.2604904-25.6383972,6.4538956-35.855896l-12.9183884-12.6846008
			c-10.7601852,14.5871277-15.3565826,33.5904236-10.9382858,52.5878906
			c8.0091858,34.4373474,42.541069,55.9376526,76.9784012,47.9284668s55.9404907-42.5417175,47.9313049-76.9790649
			C219.4771118,289.373291,215.5533295,281.3022766,210.3301086,274.375824z"/>
	</g>
</g>
</svg>
